<mxfile host="app.diagrams.net" modified="2022-07-18T12:30:45.467Z" agent="5.0 (Macintosh; Intel Mac OS X 10_15_7) AppleWebKit/537.36 (KHTML, like Gecko) Chrome/103.0.0.0 Safari/537.36" etag="IX1Y8plsQn0fhI4UIQi5" version="20.1.1" type="github">
  <diagram id="C5RBs43oDa-KdzZeNtuy" name="Page-1">
    <mxGraphModel dx="1298" dy="1924" grid="1" gridSize="10" guides="1" tooltips="1" connect="1" arrows="1" fold="1" page="1" pageScale="1" pageWidth="827" pageHeight="1169" math="0" shadow="0">
      <root>
        <mxCell id="WIyWlLk6GJQsqaUBKTNV-0" />
        <mxCell id="WIyWlLk6GJQsqaUBKTNV-1" parent="WIyWlLk6GJQsqaUBKTNV-0" />
        <mxCell id="FTFNZd3c1yu2PaZWDZ3f-0" value="" style="edgeStyle=orthogonalEdgeStyle;rounded=0;orthogonalLoop=1;jettySize=auto;html=1;" edge="1" parent="WIyWlLk6GJQsqaUBKTNV-1" source="FTFNZd3c1yu2PaZWDZ3f-2" target="FTFNZd3c1yu2PaZWDZ3f-4">
          <mxGeometry relative="1" as="geometry" />
        </mxCell>
        <mxCell id="FTFNZd3c1yu2PaZWDZ3f-1" value="发送写日志请求（append）" style="edgeLabel;html=1;align=center;verticalAlign=middle;resizable=0;points=[];" vertex="1" connectable="0" parent="FTFNZd3c1yu2PaZWDZ3f-0">
          <mxGeometry x="-0.1111" relative="1" as="geometry">
            <mxPoint y="1" as="offset" />
          </mxGeometry>
        </mxCell>
        <mxCell id="FTFNZd3c1yu2PaZWDZ3f-2" value="dledger&lt;br&gt;客户端" style="ellipse;whiteSpace=wrap;html=1;aspect=fixed;" vertex="1" parent="WIyWlLk6GJQsqaUBKTNV-1">
          <mxGeometry x="80" y="30" width="50" height="50" as="geometry" />
        </mxCell>
        <mxCell id="FTFNZd3c1yu2PaZWDZ3f-3" value="" style="edgeStyle=orthogonalEdgeStyle;rounded=0;orthogonalLoop=1;jettySize=auto;html=1;" edge="1" parent="WIyWlLk6GJQsqaUBKTNV-1" source="FTFNZd3c1yu2PaZWDZ3f-4" target="FTFNZd3c1yu2PaZWDZ3f-6">
          <mxGeometry relative="1" as="geometry" />
        </mxCell>
        <mxCell id="FTFNZd3c1yu2PaZWDZ3f-4" value="DLedgerServer#handleAppend&lt;br&gt;主节点接收append请求" style="whiteSpace=wrap;html=1;" vertex="1" parent="WIyWlLk6GJQsqaUBKTNV-1">
          <mxGeometry x="310" y="25" width="180" height="60" as="geometry" />
        </mxCell>
        <mxCell id="FTFNZd3c1yu2PaZWDZ3f-5" value="" style="edgeStyle=orthogonalEdgeStyle;rounded=0;orthogonalLoop=1;jettySize=auto;html=1;fontSize=12;" edge="1" parent="WIyWlLk6GJQsqaUBKTNV-1" source="FTFNZd3c1yu2PaZWDZ3f-6" target="FTFNZd3c1yu2PaZWDZ3f-7">
          <mxGeometry relative="1" as="geometry" />
        </mxCell>
        <mxCell id="FTFNZd3c1yu2PaZWDZ3f-6" value="Pending队列是否已满&lt;br&gt;&lt;pre style=&quot;background-color: rgb(255, 255, 255); color: rgb(8, 8, 8); font-family: &amp;quot;JetBrains Mono&amp;quot;, monospace; line-height: 1;&quot;&gt;&lt;span style=&quot;color:#871094;&quot;&gt;dLedgerEntryPusher&lt;/span&gt;.isPendingFull&lt;/pre&gt;" style="rhombus;whiteSpace=wrap;html=1;" vertex="1" parent="WIyWlLk6GJQsqaUBKTNV-1">
          <mxGeometry x="620" y="15" width="80" height="80" as="geometry" />
        </mxCell>
        <mxCell id="FTFNZd3c1yu2PaZWDZ3f-7" value="根据不同存储实现触发append&lt;br&gt;DLedgerStore#appendAsLeader&lt;br&gt;有内存和文件内存映射两种实现" style="whiteSpace=wrap;html=1;" vertex="1" parent="WIyWlLk6GJQsqaUBKTNV-1">
          <mxGeometry x="810" y="25" width="200" height="60" as="geometry" />
        </mxCell>
        <mxCell id="FTFNZd3c1yu2PaZWDZ3f-8" value="" style="shape=curlyBracket;whiteSpace=wrap;html=1;rounded=1;fontSize=12;" vertex="1" parent="WIyWlLk6GJQsqaUBKTNV-1">
          <mxGeometry x="1010" width="20" height="120" as="geometry" />
        </mxCell>
        <mxCell id="FTFNZd3c1yu2PaZWDZ3f-9" value="将日志追加到Page Cache中" style="text;html=1;align=center;verticalAlign=middle;resizable=0;points=[];autosize=1;strokeColor=none;fillColor=none;fontSize=12;" vertex="1" parent="WIyWlLk6GJQsqaUBKTNV-1">
          <mxGeometry x="1020" y="45" width="170" height="30" as="geometry" />
        </mxCell>
        <mxCell id="FTFNZd3c1yu2PaZWDZ3f-10" value="以3节点的集群为例&lt;br&gt;展示其核心原理：Leader节点会启动两个从节点对应的Entry Dispatcher线程&lt;br&gt;每个线程负责向对应的从节点转发日志" style="text;html=1;align=center;verticalAlign=middle;resizable=0;points=[];autosize=1;strokeColor=none;fillColor=none;fontSize=12;" vertex="1" parent="WIyWlLk6GJQsqaUBKTNV-1">
          <mxGeometry x="1120" y="-45" width="430" height="60" as="geometry" />
        </mxCell>
        <mxCell id="FTFNZd3c1yu2PaZWDZ3f-11" value="" style="shape=curlyBracket;whiteSpace=wrap;html=1;rounded=1;fontSize=12;rotation=90;" vertex="1" parent="WIyWlLk6GJQsqaUBKTNV-1">
          <mxGeometry x="1325" y="-35" width="20" height="120" as="geometry" />
        </mxCell>
        <mxCell id="FTFNZd3c1yu2PaZWDZ3f-12" value="&lt;span style=&quot;&quot;&gt;Entry Dispatcher&lt;/span&gt;" style="ellipse;shape=doubleEllipse;whiteSpace=wrap;html=1;aspect=fixed;fontSize=12;" vertex="1" parent="WIyWlLk6GJQsqaUBKTNV-1">
          <mxGeometry x="1256" y="35" width="40" height="40" as="geometry" />
        </mxCell>
        <mxCell id="FTFNZd3c1yu2PaZWDZ3f-13" value="&lt;span style=&quot;&quot;&gt;Entry Dispatcher&lt;/span&gt;" style="ellipse;shape=doubleEllipse;whiteSpace=wrap;html=1;aspect=fixed;fontSize=12;" vertex="1" parent="WIyWlLk6GJQsqaUBKTNV-1">
          <mxGeometry x="1375" y="36" width="40" height="40" as="geometry" />
        </mxCell>
        <mxCell id="FTFNZd3c1yu2PaZWDZ3f-14" value="" style="edgeStyle=orthogonalEdgeStyle;rounded=0;orthogonalLoop=1;jettySize=auto;html=1;fontSize=12;" edge="1" parent="WIyWlLk6GJQsqaUBKTNV-1" source="FTFNZd3c1yu2PaZWDZ3f-15" target="FTFNZd3c1yu2PaZWDZ3f-17">
          <mxGeometry relative="1" as="geometry" />
        </mxCell>
        <mxCell id="FTFNZd3c1yu2PaZWDZ3f-15" value="" style="shape=curlyBracket;whiteSpace=wrap;html=1;rounded=1;flipH=1;fontSize=12;rotation=90;" vertex="1" parent="WIyWlLk6GJQsqaUBKTNV-1">
          <mxGeometry x="1325" y="25" width="20" height="120" as="geometry" />
        </mxCell>
        <mxCell id="FTFNZd3c1yu2PaZWDZ3f-16" value="" style="edgeStyle=orthogonalEdgeStyle;rounded=0;orthogonalLoop=1;jettySize=auto;html=1;fontSize=12;" edge="1" parent="WIyWlLk6GJQsqaUBKTNV-1" source="FTFNZd3c1yu2PaZWDZ3f-17" target="FTFNZd3c1yu2PaZWDZ3f-19">
          <mxGeometry relative="1" as="geometry" />
        </mxCell>
        <mxCell id="FTFNZd3c1yu2PaZWDZ3f-17" value="启动转发线程&lt;br&gt;&lt;pre style=&quot;background-color:#ffffff;color:#080808;font-family:&#39;JetBrains Mono&#39;,monospace;font-size:9.8pt;&quot;&gt;&lt;span style=&quot;color:#000000;&quot;&gt;EntryDispatcher.start()&lt;/span&gt;&lt;/pre&gt;" style="rounded=1;whiteSpace=wrap;html=1;" vertex="1" parent="WIyWlLk6GJQsqaUBKTNV-1">
          <mxGeometry x="1238.75" y="145" width="192.5" height="60" as="geometry" />
        </mxCell>
        <mxCell id="FTFNZd3c1yu2PaZWDZ3f-18" style="edgeStyle=orthogonalEdgeStyle;rounded=0;orthogonalLoop=1;jettySize=auto;html=1;exitX=0.5;exitY=1;exitDx=0;exitDy=0;entryX=0.5;entryY=0;entryDx=0;entryDy=0;fontSize=12;" edge="1" parent="WIyWlLk6GJQsqaUBKTNV-1" source="FTFNZd3c1yu2PaZWDZ3f-19" target="FTFNZd3c1yu2PaZWDZ3f-21">
          <mxGeometry relative="1" as="geometry" />
        </mxCell>
        <mxCell id="FTFNZd3c1yu2PaZWDZ3f-19" value="&lt;font style=&quot;font-size: 12px;&quot;&gt;线程运行执行&lt;br&gt;&lt;/font&gt;&lt;pre style=&quot;background-color: rgb(255, 255, 255); color: rgb(8, 8, 8); font-family: &amp;quot;JetBrains Mono&amp;quot;, monospace;&quot;&gt;&lt;font style=&quot;font-size: 12px;&quot;&gt;EntryDispatcher.&lt;span style=&quot;color: rgb(0, 98, 122);&quot;&gt;doWork&lt;/span&gt;&lt;/font&gt;&lt;/pre&gt;" style="whiteSpace=wrap;html=1;rounded=1;" vertex="1" parent="WIyWlLk6GJQsqaUBKTNV-1">
          <mxGeometry x="1247.5" y="285" width="175" height="60" as="geometry" />
        </mxCell>
        <mxCell id="FTFNZd3c1yu2PaZWDZ3f-20" value="" style="edgeStyle=orthogonalEdgeStyle;rounded=0;orthogonalLoop=1;jettySize=auto;html=1;fontSize=12;" edge="1" parent="WIyWlLk6GJQsqaUBKTNV-1" source="FTFNZd3c1yu2PaZWDZ3f-21" target="FTFNZd3c1yu2PaZWDZ3f-27">
          <mxGeometry relative="1" as="geometry" />
        </mxCell>
        <mxCell id="FTFNZd3c1yu2PaZWDZ3f-21" value="EntryDispatcher状态机" style="swimlane;fontStyle=0;childLayout=stackLayout;horizontal=1;startSize=26;fillColor=none;horizontalStack=0;resizeParent=1;resizeParentMax=0;resizeLast=0;collapsible=1;marginBottom=0;fontSize=12;" vertex="1" parent="WIyWlLk6GJQsqaUBKTNV-1">
          <mxGeometry x="1265" y="390" width="140" height="104" as="geometry" />
        </mxCell>
        <mxCell id="FTFNZd3c1yu2PaZWDZ3f-22" value="APPEND" style="text;strokeColor=none;fillColor=none;align=left;verticalAlign=top;spacingLeft=4;spacingRight=4;overflow=hidden;rotatable=0;points=[[0,0.5],[1,0.5]];portConstraint=eastwest;fontSize=12;" vertex="1" parent="FTFNZd3c1yu2PaZWDZ3f-21">
          <mxGeometry y="26" width="140" height="26" as="geometry" />
        </mxCell>
        <mxCell id="FTFNZd3c1yu2PaZWDZ3f-23" value="COMPARE" style="text;strokeColor=none;fillColor=none;align=left;verticalAlign=top;spacingLeft=4;spacingRight=4;overflow=hidden;rotatable=0;points=[[0,0.5],[1,0.5]];portConstraint=eastwest;fontSize=12;" vertex="1" parent="FTFNZd3c1yu2PaZWDZ3f-21">
          <mxGeometry y="52" width="140" height="26" as="geometry" />
        </mxCell>
        <mxCell id="FTFNZd3c1yu2PaZWDZ3f-24" value="TRUNCATE" style="text;strokeColor=none;fillColor=none;align=left;verticalAlign=top;spacingLeft=4;spacingRight=4;overflow=hidden;rotatable=0;points=[[0,0.5],[1,0.5]];portConstraint=eastwest;fontSize=12;" vertex="1" parent="FTFNZd3c1yu2PaZWDZ3f-21">
          <mxGeometry y="78" width="140" height="26" as="geometry" />
        </mxCell>
        <mxCell id="FTFNZd3c1yu2PaZWDZ3f-25" value="" style="edgeStyle=orthogonalEdgeStyle;rounded=0;orthogonalLoop=1;jettySize=auto;html=1;fontSize=12;" edge="1" parent="WIyWlLk6GJQsqaUBKTNV-1" source="FTFNZd3c1yu2PaZWDZ3f-27" target="FTFNZd3c1yu2PaZWDZ3f-29">
          <mxGeometry relative="1" as="geometry" />
        </mxCell>
        <mxCell id="FTFNZd3c1yu2PaZWDZ3f-26" value="是" style="edgeLabel;html=1;align=center;verticalAlign=middle;resizable=0;points=[];fontSize=12;" vertex="1" connectable="0" parent="FTFNZd3c1yu2PaZWDZ3f-25">
          <mxGeometry x="-0.4259" relative="1" as="geometry">
            <mxPoint as="offset" />
          </mxGeometry>
        </mxCell>
        <mxCell id="FTFNZd3c1yu2PaZWDZ3f-27" value="状态&lt;br&gt;is&lt;br&gt;APPEND" style="rhombus;whiteSpace=wrap;html=1;fillColor=none;fontStyle=0;startSize=26;" vertex="1" parent="WIyWlLk6GJQsqaUBKTNV-1">
          <mxGeometry x="1295" y="586" width="80" height="80" as="geometry" />
        </mxCell>
        <mxCell id="FTFNZd3c1yu2PaZWDZ3f-28" value="" style="edgeStyle=orthogonalEdgeStyle;rounded=0;orthogonalLoop=1;jettySize=auto;html=1;fontSize=12;" edge="1" parent="WIyWlLk6GJQsqaUBKTNV-1" source="FTFNZd3c1yu2PaZWDZ3f-29" target="FTFNZd3c1yu2PaZWDZ3f-30">
          <mxGeometry relative="1" as="geometry" />
        </mxCell>
        <mxCell id="FTFNZd3c1yu2PaZWDZ3f-29" value="主节点根据日志序号依次向从节点发送推送日志请求" style="whiteSpace=wrap;html=1;fillColor=none;fontStyle=0;startSize=26;" vertex="1" parent="WIyWlLk6GJQsqaUBKTNV-1">
          <mxGeometry x="1257.5" y="720" width="155" height="60" as="geometry" />
        </mxCell>
        <mxCell id="FTFNZd3c1yu2PaZWDZ3f-30" value="DLedgerServer&lt;br&gt;接收节点间RPC请求" style="whiteSpace=wrap;html=1;fillColor=none;fontStyle=0;startSize=26;" vertex="1" parent="WIyWlLk6GJQsqaUBKTNV-1">
          <mxGeometry x="1275" y="860" width="120" height="60" as="geometry" />
        </mxCell>
      </root>
    </mxGraphModel>
  </diagram>
</mxfile>
